# xmcd
#
# Track frame offsets:
#	150
#	24778
#	42896
#	64384
#	97358
#	118862
#	146226
#	163715
#	188463
#	215047
#	230149
#	255870
#
# Disc length: 3620 seconds
#
# Revision: 0
# Processed by: cddbd v1.5.2PL0 Copyright (c) Steve Scherf et al.
# Submitted via: dBpowerAMP V4.0
#
DISCID=af0e220c
DTITLE=Various Artist - Love Me Bath and Body Works Chillout Playlist
DYEAR=1900
DGENRE=
TTITLE0=Inner City Blues - Marvin Gaye
TTITLE1=Lazy Lover - Brazilian Girls
TTITLE2=Samba da Bencao - Bebel Gilberto
TTITLE3=Looking for Love - Karen Ramirez
TTITLE4=Waiting - Miguel Migs
TTITLE5=Feelin' Good - (Joe Claussell Remix) Nina Simone
TTITLE6=Wait Till You See Him - (De-Phazz remix) Ella Fitzgerald
TTITLE7=Repetition - Gaelle
TTITLE8=Suavemente - Malena
TTITLE9=Sweet Thing - Rufus featuring Chaka Khan
TTITLE10=The Story of Us - Seek
TTITLE11=Light My Fire - Jose Feliciano
EXTD=
EXTT0=
EXTT1=
EXTT2=
EXTT3=
EXTT4=
EXTT5=
EXTT6=
EXTT7=
EXTT8=
EXTT9=
EXTT10=
EXTT11=
PLAYORDER=
